<svg width="56" height="56" viewBox="0 0 56 56" fill="none" xmlns="http://www.w3.org/2000/svg"><rect width="56" height="56" rx="5" fill="#fff"/><path d="M11.987 23.293c.775 0 1.408.117 1.901.352.504.223.95.487 1.338.792.234.176.41.2.527.07.13-.14.218-.463.265-.968h.405c-.024.458-.041 1.015-.053 1.672-.012.646-.018 1.508-.018 2.587h-.405c-.058-.54-.135-.998-.229-1.373-.094-.387-.223-.727-.387-1.02-.165-.294-.4-.558-.705-.792-.294-.293-.634-.51-1.021-.651-.387-.14-.792-.211-1.214-.211-.634 0-.174.17-.62.51-.445.329-.809.781-1.09 1.356-.281.575-.48 1.226-.61 1.954-.13.715-.194 1.46-.194 2.235 0 .786.065 1.543.194 2.27.14.716.352 1.356.633 1.919.293.563.669 1.009 1.126 1.337.458.329.998.493 1.62.493.387 0 .775-.07 1.162-.211.398-.153.738-.37 1.02-.652.458-.351.77-.785.934-1.302.164-.528.287-1.227.37-2.095h.404c0 1.115.006 2.018.018 2.71.012.68.03 1.255.053 1.725h-.405c-.047-.505-.13-.821-.246-.95-.106-.13-.288-.112-.546.052-.434.305-.898.575-1.39.81-.48.223-1.103.334-1.866.334-1.243 0-2.335-.252-3.274-.756-.926-.505-1.648-1.232-2.164-2.183-.516-.95-.775-2.094-.775-3.432 0-1.314.264-2.464.793-3.45.54-.985 1.273-1.754 2.2-2.305.938-.552 2.018-.828 3.238-.828zM21.405 22.237v6.054c.293-.61.686-1.032 1.179-1.267.504-.246 1.067-.37 1.69-.37.504 0 .909.065 1.214.194.305.117.546.281.722.493.2.223.34.51.423.862.094.352.14.574.14 1.426v4.735c0 .493.082.827.247 1.003.176.176.469.264.88.264v.37c-.223-.012-.563-.024-1.02-.035-.446-.024-.88-.036-1.303-.036-.457 0-.903.012-1.337.036-.422.011-.739.023-.95.035v-.37c.352 0 .599-.088.74-.264.14-.176.21-.51.21-1.003v-4.474c0-.293-.029-.545-.087-.756-.059-.223-.171-.393-.335-.51-.153-.13-.376-.194-.669-.194-.317 0-.61.088-.88.264-.258.164-.469.399-.633.704-.152.305-.229.657-.229 1.056v4.91c0 .493.07.827.211 1.003.14.176.387.264.739.264v.37c-.211-.012-.522-.024-.933-.035-.41-.024-.827-.036-1.249-.036-.458 0-.922.012-1.391.036-.458.011-.804.023-1.038.035v-.37c.41 0 .698-.088.862-.264.176-.176.264-.51.264-1.003V24.349c0-.528-.082-.915-.246-1.162-.152-.258-.446-.387-.88-.387v-.37c.375.035.739.053 1.091.053.48 0 .938-.018 1.373-.053.434-.047.833-.111 1.197-.193zM34.594 26.654c.375 0 .68.082.915.247.234.152.404.351.51.598.117.246.176.504.176.774 0 .434-.13.792-.387 1.073-.247.27-.576.405-.986.405-.41 0-.733-.1-.968-.3-.223-.21-.335-.486-.335-.827 0-.329.07-.598.211-.81.153-.222.34-.41.563-.563-.164-.047-.328-.041-.493.018-.223.035-.434.129-.633.281-.2.141-.37.323-.51.546-.141.211-.253.445-.335.703-.082.246-.123.487-.123.722v4.664c0 .563.135.945.405 1.144.281.2.698.3 1.249.3v.369c-.27-.012-.663-.023-1.179-.035-.516-.024-1.056-.036-1.619-.036-.469 0-.945.012-1.426.036-.48.011-.844.023-1.09.035v-.37c.41 0 .697-.087.862-.263.164-.176.252-.51.252-1.003v-4.544c0-.528-.082-.915-.246-1.162-.153-.258-.446-.387-.88-.387v-.37c.375.035.738.053 1.09.053.493 0 .95-.018 1.373-.053.434-.047.833-.111 1.197-.193v1.637c.14-.317.328-.605.563-.863.234-.258.504-.457.809-.598.305-.152.645-.229 1.02-.229zM39.043 22.36c.493 0 .88.123 1.162.37.292.234.44.562.44 1.584 0 .422-.147.756-.44 1.003-.282.234-.67.351-1.162.351-.493 0-.886-.117-1.179-.351-.282-.247-.422-.581-.422-1.003 0-.422.14-.756.422-1.003.293-.247.686-.37 1.179-.37zm1.373 4.347v7.656c0 .493.082.827.246 1.003.176.176.47.264.88.264v.37c-.211-.012-.54-.024-.985-.035-.446-.024-.898-.036-1.355-.036-.458 0-.922.012-1.391.036-.47.011-.82.023-1.056.035v-.37c.41 0 .698-.087.862-.263.176-.176.264-.51.264-1.003v-4.544c0-.528-.082-.915-.246-1.162-.153-.258-.446-.387-.88-.387v-.37c.375.035.738.053 1.09.053.493 0 .95-.018 1.373-.053.434-.047.833-.111 1.197-.193zM45.792 26.654c.493 0 .921.065 1.285.194.375.117.644.234.809.352.398.27.644.094.738-.528h.37c-.024.329-.041.733-.053 1.214-.012.47-.018 1.097-.018 1.883h-.37c-.058-.434-.169-.862-.334-1.285-.164-.422-.404-.769-.721-1.038-.305-.27-.704-.405-1.197-.405-.34 0-.628.1-.862.3-.235.187-.352.463-.352.827 0 .352.106.663.317.933.21.258.48.51.809.756.34.235.692.487 1.056.757.387.293.739.586 1.056.88.317.28.57.592.757.932.188.34.282.745.282 1.214 0 .528-.153.992-.458 1.39-.305.387-.71.686-1.214.898-.493.21-1.044.316-1.654.316-.352 0-.67-.035-.95-.105-.27-.07-.505-.159-.704-.264-.152-.07-.299-.135-.44-.194-.129-.07-.252-.129-.369-.175-.117-.036-.223-.006-.317.087-.082.117-.146.281-.193.493h-.37c.024-.376.041-.833.053-1.373.012-.54.018-1.255.018-2.147h.37c.07.633.199 1.197.387 1.69.187.48.44.862.757 1.144.328.27.739.404 1.232.404.2 0 .393-.04.58-.123.188-.082.34-.217.458-.405.13-.187.194-.427.194-.721 0-.516-.171-1.944-.512-1.285-.294-.34-.686-.71-1.179-1.108-.375-.305-.733-.605-1.073-.898-.329-.305-.599-.634-.81-.986-.211-.363-.317-.774-.317-1.232 0-.528.14-.974.422-1.337.282-.364.651-.634 1.109-.81.469-.188.968-.282 1.496-.282z" fill="#000"/></svg>